<svg width="66" height="68" viewBox="0 0 66 68" fill="none" xmlns="http://www.w3.org/2000/svg">
<path d="M61.6118 27.7882C62.3502 25.4947 62.6068 23.069 62.3648 20.6683C62.1229 18.2676 61.3879 15.9452 60.2075 13.8516C56.5728 7.3882 49.2266 4.114 42.0442 5.6236C38.9044 2.0162 34.2833 0 29.4917 0C25.9253 0.000399884 22.4499 1.14443 19.5599 3.26933C16.6699 5.39422 14.5126 8.39174 13.3948 11.8354C11.0685 12.3229 8.87094 13.3089 6.94867 14.7277C5.0264 16.1464 3.4235 17.9654 2.24675 20.0634C0.475132 23.2046 -0.278695 26.8332 0.0922282 30.4346C0.463151 34.0359 1.93999 37.427 4.3132 40.1268C3.58423 42.4261 3.33968 44.8558 3.59548 47.2576C3.85127 49.6594 4.60167 51.9795 5.79783 54.0668C7.57063 57.2246 10.288 59.7249 13.5546 61.2041C16.8213 62.6833 20.4669 63.0642 23.9611 62.2914C25.5448 64.0813 27.4797 65.514 29.6411 66.4972C31.8025 67.4804 34.1424 67.9923 36.5103 68C40.0772 68.0003 43.5534 66.8566 46.444 64.7317C49.3347 62.6067 51.4925 59.6088 52.6105 56.1646C54.9362 55.6766 57.1331 54.6904 59.0548 53.2717C60.9764 51.853 62.5788 50.0342 63.7552 47.9366C65.5357 44.778 66.287 41.1273 65.9014 37.5077C65.5157 33.8882 64.0163 30.4858 61.6118 27.7882ZM36.5103 63.5494C33.5811 63.5763 30.7396 62.534 28.5019 60.6118C28.5855 60.5268 28.833 60.4418 28.9166 60.3602L42.208 52.5538C42.5384 52.3566 42.8117 52.0742 43.0002 51.7351C43.1887 51.3959 43.2857 51.0121 43.2814 50.6226V31.5656L48.8955 34.8398C48.9791 34.8398 48.9791 34.9214 48.9791 35.0098V50.7892C48.9955 52.4627 48.6848 54.1227 48.065 55.6731C47.4452 57.2234 46.5286 58.6331 45.3686 59.8203C44.2085 61.0074 42.8281 61.9484 41.3074 62.5886C39.7867 63.2287 38.1561 63.5553 36.5103 63.5494ZM9.59299 51.8806C8.10836 49.2796 7.61349 46.257 8.10836 43.3194C8.19196 43.401 8.35914 43.4894 8.52299 43.571L21.8144 51.3774C22.1355 51.5841 22.5077 51.6939 22.8878 51.6939C23.2678 51.6939 23.64 51.5841 23.9611 51.3774L40.2252 41.8064V48.4364C40.2252 48.5248 40.2252 48.6064 40.1449 48.6064L26.6863 56.4978C20.7411 60.0236 13.0605 57.9258 9.59299 51.8806ZM6.1322 22.3346C7.6183 19.7648 9.91661 17.7826 12.6525 16.711V32.827C12.6525 33.5852 13.0672 34.34 13.7259 34.7582L29.9933 44.3292L24.3757 47.6034C24.2955 47.6034 24.2119 47.6884 24.2119 47.6034L10.7533 39.7086C9.31761 38.8862 8.05725 37.7816 7.04563 36.459C6.03401 35.1364 5.29137 33.6223 4.86096 32.0049C4.43056 30.3876 4.321 28.6993 4.53868 27.0385C4.75636 25.3777 5.29692 23.7775 6.12886 22.3312M52.363 33.2452L36.099 23.6742L41.7131 20.4C41.7934 20.4 41.8803 20.315 41.8803 20.4L55.3356 28.288C56.7604 29.1218 58.0089 30.234 59.0092 31.5606C60.0095 32.8871 60.7417 34.4018 61.1638 36.0174C61.5859 37.6329 61.6894 39.3175 61.4685 40.9739C61.2475 42.6303 60.7065 44.2259 59.8764 45.6688C58.4103 48.2372 56.102 50.1991 53.3561 51.2108V35.1764C53.3831 34.7925 53.3045 34.4085 53.1291 34.0675C52.9537 33.7264 52.6885 33.4417 52.363 33.2452ZM57.8936 24.6806C57.7691 24.5771 57.6306 24.4923 57.4823 24.429L44.1909 16.6226C43.8698 16.4159 43.4976 16.3061 43.1175 16.3061C42.7375 16.3061 42.3653 16.4159 42.0442 16.6226L25.7768 26.1936V19.5602C25.7768 19.4752 25.7768 19.3902 25.8604 19.3902L39.319 11.5022C40.7429 10.664 42.3158 10.1205 43.9471 9.90311C45.5784 9.68569 47.2359 9.79861 48.8241 10.2354C50.4124 10.6721 51.8999 11.4241 53.2011 12.4479C54.5022 13.4718 55.5913 14.7473 56.4056 16.201C57.8936 18.7204 58.3885 21.743 57.8936 24.6806ZM22.7239 36.4344L17.1064 33.1602C17.0262 33.1602 17.0262 33.0752 17.0262 32.9902V17.2142C17.0248 15.5381 17.3485 13.8782 17.9787 12.3295C18.6089 10.7808 19.5332 9.37355 20.6988 8.18839C21.8643 7.00322 23.2483 6.06337 24.7714 5.42258C26.2945 4.7818 27.927 4.45266 29.5753 4.454C32.5045 4.42711 35.3459 5.46942 37.5836 7.3916C37.4591 7.49515 37.3206 7.57989 37.1723 7.6432L23.8809 15.4462C23.5504 15.6434 23.2771 15.9258 23.0886 16.2649C22.9002 16.6041 22.8032 16.9879 22.8075 17.3774V36.4344H22.7239ZM25.7768 29.7194L33.0428 25.4354L40.3088 29.7194V38.1956L33.0428 42.4796L25.7768 38.1956V29.7194Z" fill="#BA9BFF"/>
</svg>
