<svg width="52" height="52" viewBox="0 0 52 52" fill="none" xmlns="http://www.w3.org/2000/svg">
<circle cx="26" cy="26" r="26" fill="#BA9BFF"/>
<path d="M35.625 24.625H27.375V16.375C27.375 16.0103 27.2301 15.6606 26.9723 15.4027C26.7144 15.1449 26.3647 15 26 15C25.6353 15 25.2856 15.1449 25.0277 15.4027C24.7699 15.6606 24.625 16.0103 24.625 16.375V24.625H16.375C16.0103 24.625 15.6606 24.7699 15.4027 25.0277C15.1449 25.2856 15 25.6353 15 26C15 26.3647 15.1449 26.7144 15.4027 26.9723C15.6606 27.2301 16.0103 27.375 16.375 27.375H24.625V35.625C24.625 35.9897 24.7699 36.3394 25.0277 36.5973C25.2856 36.8551 25.6353 37 26 37C26.3647 37 26.7144 36.8551 26.9723 36.5973C27.2301 36.3394 27.375 35.9897 27.375 35.625V27.375H35.625C35.9897 27.375 36.3394 27.2301 36.5973 26.9723C36.8551 26.7144 37 26.3647 37 26C37 25.6353 36.8551 25.2856 36.5973 25.0277C36.3394 24.7699 35.9897 24.625 35.625 24.625Z" fill="black"/>
</svg>
